<svg width="28" height="28" viewBox="0 0 28 28" fill="none" xmlns="http://www.w3.org/2000/svg">
<path d="M18.6667 8.16667C18.6667 7.85725 18.7897 7.5605 19.0085 7.34171C19.2272 7.12292 19.524 7 19.8334 7C20.1428 7 20.4396 7.12292 20.6584 7.34171C20.8772 7.5605 21.0001 7.85725 21.0001 8.16667C21.0001 8.47609 20.8772 8.77283 20.6584 8.99162C20.4396 9.21042 20.1428 9.33333 19.8334 9.33333C19.524 9.33333 19.2272 9.21042 19.0085 8.99162C18.7897 8.77283 18.6667 8.47609 18.6667 8.16667Z" fill="white"/>
<path fill-rule="evenodd" clip-rule="evenodd" d="M13.9999 8.45825C12.5302 8.45825 11.1206 9.0421 10.0814 10.0814C9.0421 11.1206 8.45825 12.5302 8.45825 13.9999C8.45825 15.4697 9.0421 16.8792 10.0814 17.9185C11.1206 18.9577 12.5302 19.5416 13.9999 19.5416C15.4697 19.5416 16.8792 18.9577 17.9185 17.9185C18.9577 16.8792 19.5416 15.4697 19.5416 13.9999C19.5416 12.5302 18.9577 11.1206 17.9185 10.0814C16.8792 9.0421 15.4697 8.45825 13.9999 8.45825ZM10.2083 13.9999C10.2083 12.9943 10.6077 12.0299 11.3188 11.3188C12.0299 10.6077 12.9943 10.2083 13.9999 10.2083C15.0055 10.2083 15.97 10.6077 16.681 11.3188C17.3921 12.0299 17.7916 12.9943 17.7916 13.9999C17.7916 15.0055 17.3921 15.97 16.681 16.681C15.97 17.3921 15.0055 17.7916 13.9999 17.7916C12.9943 17.7916 12.0299 17.3921 11.3188 16.681C10.6077 15.97 10.2083 15.0055 10.2083 13.9999Z" fill="white"/>
<path fill-rule="evenodd" clip-rule="evenodd" d="M20.1343 3.30529C16.0572 2.85332 11.9427 2.85332 7.86565 3.30529C5.51832 3.56779 3.62248 5.41695 3.34715 7.77595C2.86345 11.9113 2.86345 16.0889 3.34715 20.2243C3.62248 22.5833 5.51715 24.4325 7.86565 24.695C11.9427 25.1465 16.0572 25.1465 20.1343 24.695C22.4816 24.4325 24.3775 22.5833 24.6528 20.2243C25.1366 16.0889 25.1366 11.9113 24.6528 7.77595C24.3775 5.41695 22.4828 3.56779 20.1343 3.30529ZM8.05932 5.04362C12.0077 4.60597 15.9923 4.60597 19.9406 5.04362C21.4923 5.21862 22.7348 6.44245 22.9156 7.98012C23.3834 11.9798 23.3834 16.0204 22.9156 20.0201C22.8221 20.7727 22.4776 21.4717 21.9378 22.0043C21.398 22.5369 20.6944 22.872 19.9406 22.9555C15.9923 23.3931 12.0077 23.3931 8.05932 22.9555C7.30558 22.872 6.60198 22.5369 6.06216 22.0043C5.52235 21.4717 5.17785 20.7727 5.08432 20.0201C4.61654 16.0204 4.61654 11.9798 5.08432 7.98012C5.17785 7.22757 5.52235 6.52853 6.06216 5.99591C6.60198 5.4633 7.30558 5.12705 8.05932 5.04362Z" fill="white"/>
</svg>
