<svg width="36" height="40" viewBox="0 0 36 40" fill="none" xmlns="http://www.w3.org/2000/svg">
<path d="M17.9995 0.62849C15.4852 0.536771 13.5381 2.27396 11.4298 3.36552C8.56219 5.06536 5.6093 6.63349 2.79883 8.42146C0.960547 9.9156 0.115938 12.3199 0.308984 14.6417C0.319688 18.7583 0.287656 22.8758 0.325156 26.9917C0.563203 29.4839 2.29133 31.599 4.51508 32.6415C8.08492 34.6904 11.6338 36.7773 15.2167 38.8022C17.4944 39.8408 20.1907 39.404 22.2055 37.9989C25.7649 35.9314 29.3463 33.9004 32.8917 31.8099C34.9312 30.3579 35.8993 27.8039 35.69 25.3568C35.6793 21.2401 35.7114 17.1227 35.6738 13.0068C35.4355 10.5147 33.7077 8.39919 31.4837 7.35708C27.9138 5.30865 24.3643 3.2231 20.7816 1.19794C19.9144 0.79513 18.951 0.631224 17.9995 0.62849ZM15.7577 10.9948H20.2421V29.0042H15.7577V10.9948ZM21.4008 14.9147H25.883V29.0042H21.4008V14.9147ZM10.1155 22.2647H14.5991V29.0042H10.1155V22.2647Z" fill="#4C368C"/>
</svg>
