<svg width="34" height="34" viewBox="0 0 34 34" fill="none" xmlns="http://www.w3.org/2000/svg">
<path d="M18.655 3.68659H8.64665V1.99659C8.64753 1.55514 8.82351 1.13207 9.13598 0.820228C9.44844 0.508388 9.87186 0.333251 10.3133 0.333252H16.9916C17.4325 0.334133 17.8551 0.509659 18.1668 0.821404C18.4786 1.13315 18.6541 1.55571 18.655 1.99659V3.68659ZM17 23.6566H0.333313L4.49998 14.4966L8.66665 5.33825H18.655L20.835 10.1233L23.0166 14.9099L20.0083 16.2466L17 17.5833V23.6566ZM17 13.6666C17.0001 12.8954 16.7329 12.148 16.2438 11.5518C15.7547 10.9555 15.0739 10.5473 14.3176 10.3967C13.5612 10.2461 12.7761 10.3624 12.0959 10.7258C11.4157 11.0892 10.8825 11.6773 10.5873 12.3897C10.292 13.1021 10.2529 13.8949 10.4767 14.6329C10.7004 15.371 11.1731 16.0086 11.8143 16.4371C12.4554 16.8657 13.2254 17.0587 13.9928 16.9832C14.7603 16.9077 15.4779 16.5685 16.0233 16.0233C16.6485 15.3983 16.9998 14.5506 17 13.6666ZM17.1416 25.3249H3.65498V26.9999C3.65498 27.4379 3.74131 27.8717 3.90903 28.2763C4.07676 28.6809 4.32259 29.0485 4.63247 29.3581C4.94235 29.6677 5.31021 29.9132 5.71501 30.0805C6.11982 30.2478 6.55363 30.3337 6.99165 30.3333H19.0566C18.5649 29.5828 18.1532 28.7829 17.8283 27.9466C17.5012 27.1014 17.2708 26.2219 17.1416 25.3249ZM33.6666 18.6666V23.6666C33.6528 25.9544 32.9037 28.1771 31.53 30.0066C30.2196 31.8105 28.3241 33.104 26.1666 33.6666C24.0098 33.1037 22.1149 31.8102 20.805 30.0066C19.4307 28.1773 18.681 25.9546 18.6666 23.6666V18.6666L22.4166 16.9999L26.1666 15.3333L29.9166 16.9999L33.6666 18.6666ZM26.1666 17.1583L23.25 18.4549L20.3333 19.7499V24.4999H26.1666V31.9416C27.7271 31.4329 29.0933 30.4565 30.08 29.1449C31.1197 27.7906 31.7822 26.185 32 24.4916H26.1666V17.1583Z" fill="white"/>
</svg>
