<svg width="40" height="40" viewBox="0 0 40 40" fill="none" xmlns="http://www.w3.org/2000/svg">
<path d="M18.3333 13.3333H21.6667V15H18.3333V13.3333ZM18.3333 6.66663H21.6667V8.33329H18.3333V6.66663ZM18.3333 16.6666H21.6667V18.3333H18.3333V16.6666Z" fill="white"/>
<path d="M35 20V15C29.9189 14.9984 24.9959 16.7663 21.0767 20H18.9233C15.0041 16.7663 10.0811 14.9984 4.99999 15V20C4.55797 20 4.13404 20.1756 3.82148 20.4882C3.50892 20.8007 3.33333 21.2246 3.33333 21.6667V25C3.33333 25.442 3.50892 25.866 3.82148 26.1785C4.13404 26.4911 4.55797 26.6667 4.99999 26.6667V33.3333C10.5702 33.3277 15.9335 35.4433 20 39.25C24.071 35.4505 29.4314 33.3361 35 33.3333V26.6667C35.442 26.6667 35.8659 26.4911 36.1785 26.1785C36.4911 25.866 36.6667 25.442 36.6667 25V21.6667C36.6667 21.2246 36.4911 20.8007 36.1785 20.4882C35.8659 20.1756 35.442 20 35 20Z" fill="white"/>
<path d="M15 8.33333C15.9205 8.33333 16.6667 7.58714 16.6667 6.66667C16.6667 5.74619 15.9205 5 15 5C14.0795 5 13.3333 5.74619 13.3333 6.66667C13.3333 7.58714 14.0795 8.33333 15 8.33333Z" fill="white"/>
<path d="M25 8.33333C25.9205 8.33333 26.6667 7.58714 26.6667 6.66667C26.6667 5.74619 25.9205 5 25 5C24.0795 5 23.3333 5.74619 23.3333 6.66667C23.3333 7.58714 24.0795 8.33333 25 8.33333Z" fill="white"/>
<path d="M26.6667 13.3333H13.3333C12.0077 13.332 10.7367 12.8048 9.79926 11.8674C8.86186 10.93 8.33465 9.65901 8.33333 8.33333V5C8.33465 3.67432 8.86186 2.40332 9.79926 1.46593C10.7367 0.528533 12.0077 0.00132369 13.3333 0L26.6667 0C27.9923 0.00132369 29.2633 0.528533 30.2007 1.46593C31.1381 2.40332 31.6653 3.67432 31.6667 5V8.33333C31.6653 9.65901 31.1381 10.93 30.2007 11.8674C29.2633 12.8048 27.9923 13.332 26.6667 13.3333ZM13.3333 3.33333C12.8913 3.33333 12.4674 3.50893 12.1548 3.82149C11.8423 4.13405 11.6667 4.55797 11.6667 5V8.33333C11.6667 8.77536 11.8423 9.19928 12.1548 9.51184C12.4674 9.8244 12.8913 10 13.3333 10H26.6667C27.1087 10 27.5326 9.8244 27.8452 9.51184C28.1577 9.19928 28.3333 8.77536 28.3333 8.33333V5C28.3333 4.55797 28.1577 4.13405 27.8452 3.82149C27.5326 3.50893 27.1087 3.33333 26.6667 3.33333H13.3333Z" fill="white"/>
</svg>
