<svg width="28" height="28" viewBox="0 0 28 28" fill="none" xmlns="http://www.w3.org/2000/svg">
<path d="M22.19 5.80418C20.5695 4.18438 18.5051 3.08149 16.2577 2.63496C14.0104 2.18844 11.6811 2.41835 9.56445 3.29561C7.44778 4.17288 5.63878 5.65809 4.3662 7.56346C3.09362 9.46882 2.41461 11.7088 2.41504 14C2.41504 17.0731 3.63541 20.0204 5.80785 22.1939C7.98029 24.3674 10.927 25.5893 14 25.5908C15.5208 25.5915 17.0269 25.2942 18.4334 24.7158C19.8354 24.1241 21.1107 23.2686 22.19 22.1958C23.2664 21.1196 24.1203 19.8419 24.7029 18.4356C25.2854 17.0294 25.5853 15.5222 25.5853 14C25.5853 12.4779 25.2854 10.9706 24.7029 9.56438C24.1203 8.15813 23.2664 6.88041 22.19 5.80418ZM21.3734 21.3675C19.7051 23.0429 17.5161 24.1004 15.1667 24.3658V16.7125H17.36C17.6695 16.7125 17.9662 16.5896 18.185 16.3708C18.4038 16.152 18.5267 15.8553 18.5267 15.5458C18.5267 15.2364 18.4038 14.9397 18.185 14.7209C17.9662 14.5021 17.6695 14.3792 17.36 14.3792H15.1667V11.1825C15.1667 10.8731 15.2896 10.5764 15.5084 10.3576C15.7272 10.1388 16.024 10.0159 16.3334 10.0159H17.7334C18.0428 10.0159 18.3395 9.89293 18.5583 9.67414C18.7771 9.45535 18.9 9.1586 18.9 8.84918C18.9 8.53976 18.7771 8.24302 18.5583 8.02423C18.3395 7.80543 18.0428 7.68252 17.7334 7.68252H15.75C14.9765 7.68252 14.2346 7.98981 13.6876 8.53679C13.1407 9.08377 12.8334 9.82563 12.8334 10.5992V14.3792H10.6517C10.3423 14.3792 10.0455 14.5021 9.82675 14.7209C9.60796 14.9397 9.48504 15.2364 9.48504 15.5458C9.48504 15.8553 9.60796 16.152 9.82675 16.3708C10.0455 16.5896 10.3423 16.7125 10.6517 16.7125H12.8334V24.3658C10.6667 24.1187 8.63253 23.197 7.01806 21.7311C5.40359 20.2652 4.29047 18.3292 3.83592 16.1964C3.38137 14.0636 3.60837 11.8419 4.48486 9.84512C5.36134 7.84833 6.84301 6.17738 8.72058 5.06827C10.5981 3.95917 12.7767 3.46798 14.9486 3.66407C17.1204 3.86017 19.1758 4.73364 20.8243 6.16112C22.4728 7.58859 23.6313 9.49792 24.1359 11.6194C24.6405 13.7409 24.4659 15.9673 23.6367 17.9842C23.1086 19.2479 22.3399 20.397 21.3734 21.3675Z" fill="white"/>
</svg>
