<svg width="25" height="24" viewBox="0 0 25 24" fill="none" xmlns="http://www.w3.org/2000/svg">
<path d="M14.4999 9.99998L11.4999 13M20.7879 3.03098C20.8828 2.99823 20.9849 2.99284 21.0827 3.01542C21.1806 3.03801 21.27 3.08765 21.341 3.15869C21.4119 3.22972 21.4614 3.31927 21.4838 3.41711C21.5063 3.51495 21.5007 3.61713 21.4679 3.71198L15.5439 20.642C15.5084 20.7432 15.4434 20.8314 15.3572 20.8952C15.271 20.959 15.1676 20.9954 15.0605 20.9997C14.9533 21.004 14.8473 20.976 14.7563 20.9194C14.6652 20.8627 14.5933 20.78 14.5499 20.682L11.3309 13.44C11.2767 13.3195 11.1803 13.2231 11.0599 13.169L3.81786 9.94898C3.72016 9.90535 3.63778 9.83343 3.58137 9.74251C3.52495 9.65159 3.4971 9.54584 3.50141 9.43892C3.50572 9.33201 3.54198 9.22884 3.60553 9.14275C3.66907 9.05666 3.75697 8.9916 3.85786 8.95598L20.7879 3.03098Z" stroke="black" stroke-width="1.5" stroke-linecap="round" stroke-linejoin="round"/>
</svg>
