<svg width="28" height="28" viewBox="0 0 28 28" fill="none" xmlns="http://www.w3.org/2000/svg">
<path fill-rule="evenodd" clip-rule="evenodd" d="M17.5257 3.90013C18.1184 3.79863 18.7822 3.76479 19.4076 3.87096C20.5215 4.05911 21.5535 4.57636 22.3709 5.35613C22.9029 5.36779 23.4267 5.26279 23.8899 5.11346C24.3375 4.96748 24.7673 4.7714 25.1709 4.52896L25.1814 4.52196C25.3494 4.41003 25.5509 4.35962 25.7519 4.3793C25.9528 4.39898 26.1407 4.48753 26.2838 4.62993C26.4269 4.77234 26.5163 4.95984 26.537 5.16066C26.5576 5.36148 26.5082 5.56326 26.3971 5.73179C26.1556 6.09929 25.8184 6.75496 25.4416 7.48996L25.2607 7.84113C25.0449 8.26113 24.8232 8.68579 24.6167 9.04979C24.4872 9.27846 24.3484 9.51063 24.2084 9.71129V10.031C24.2228 11.9427 23.8562 13.8382 23.1301 15.6067C22.404 17.3753 21.333 18.9815 19.9794 20.3317C18.6259 21.6818 17.017 22.7489 15.2467 23.4706C13.4763 24.1922 11.5799 24.5541 9.66824 24.535C6.89792 24.5375 4.18591 23.7393 1.85857 22.2366C1.69154 22.1293 1.56597 21.9684 1.50248 21.7803C1.439 21.5921 1.44137 21.388 1.50922 21.2014C1.57707 21.0149 1.70636 20.8569 1.87585 20.7535C2.04534 20.6501 2.24495 20.6074 2.44191 20.6325C4.04942 20.8246 5.67868 20.5653 7.14707 19.8835C6.43066 19.5578 5.78992 19.0865 5.26567 18.4995C4.74142 17.9126 4.34514 17.223 4.10207 16.4745C4.05576 16.3312 4.04721 16.1783 4.07725 16.0308C4.1073 15.8832 4.17492 15.7459 4.27357 15.6321L4.28524 15.6205C3.69317 15.093 3.21863 14.4469 2.89242 13.7241C2.56621 13.0014 2.39563 12.2181 2.39174 11.4251V11.3645C2.39165 11.1724 2.45478 10.9856 2.57138 10.8329C2.68797 10.6803 2.85156 10.5702 3.03691 10.5198C2.64184 9.73152 2.43687 8.86169 2.43841 7.97996C2.43774 6.98033 2.69922 5.99799 3.19674 5.13096C3.26742 5.00788 3.36699 4.90384 3.48684 4.82782C3.6067 4.7518 3.74325 4.70608 3.88472 4.69459C4.02619 4.68311 4.16833 4.70621 4.29887 4.76191C4.42942 4.81761 4.54446 4.90423 4.63407 5.01429C6.67479 7.52838 9.59845 9.1684 12.8077 9.59929C12.7799 8.54951 13.0447 7.51268 13.5726 6.60485C14.1005 5.69702 14.8706 4.954 15.7967 4.45896C16.2657 4.20929 16.8864 4.00979 17.5257 3.90013ZM4.36574 12.7061C4.59229 13.3437 4.9805 13.9116 5.49237 14.3541C6.00425 14.7967 6.62225 15.0988 7.28591 15.2308C7.47711 15.2689 7.65011 15.3697 7.77747 15.5174C7.90482 15.665 7.97922 15.8509 7.98887 16.0456C7.99852 16.2403 7.94286 16.4327 7.83073 16.5922C7.71859 16.7517 7.55641 16.8692 7.3699 16.926C7.05257 17.0228 6.72707 17.0893 6.3969 17.1278C6.75536 17.5902 7.21282 17.9664 7.73571 18.2289C8.25859 18.4913 8.83362 18.6333 9.41857 18.6445C9.599 18.6479 9.77397 18.707 9.9195 18.8137C10.065 18.9204 10.174 19.0695 10.2315 19.2406C10.289 19.4116 10.2922 19.5963 10.2406 19.7692C10.1891 19.9422 10.0853 20.0949 9.94357 20.2066C8.72703 21.1638 7.31329 21.8392 5.80424 22.1841C7.05358 22.584 8.35762 22.7867 9.6694 22.785H9.6799C11.36 22.8028 13.0268 22.4857 14.583 21.852C16.1391 21.2184 17.5534 20.2809 18.7431 19.0945C19.9328 17.908 20.8741 16.4964 21.512 14.942C22.15 13.3876 22.4717 11.7216 22.4584 10.0415V9.41729C22.4582 9.20483 22.5354 8.99957 22.6754 8.83979C22.7571 8.74763 22.8971 8.53529 23.0954 8.18646C23.2821 7.85746 23.4897 7.46079 23.7056 7.04196L23.7441 6.96496C23.1346 7.10211 22.5071 7.14032 21.8856 7.07813C21.6754 7.05523 21.4806 6.95701 21.3372 6.80163C20.7505 6.16542 19.9692 5.74195 19.1159 5.59763C18.6855 5.53675 18.2481 5.5466 17.8209 5.62679C17.4045 5.69161 17.0002 5.81864 16.6216 6.00363C15.8582 6.4115 15.2518 7.06123 14.8975 7.85092C14.5432 8.6406 14.461 9.52555 14.6639 10.367C14.6958 10.4993 14.6965 10.6372 14.6657 10.7698C14.635 10.9024 14.5738 11.026 14.4869 11.1308C14.4 11.2355 14.2899 11.3186 14.1653 11.3733C14.0407 11.4281 13.905 11.453 13.7691 11.4461C10.1846 11.2648 6.79574 9.75649 4.26191 7.21463C4.21268 7.46715 4.18806 7.72385 4.18841 7.98113V7.98346C4.18709 8.626 4.34469 9.25889 4.64717 9.82578C4.94965 10.3927 5.38761 10.876 5.92207 11.2326C6.07902 11.3383 6.1975 11.4919 6.25976 11.6706C6.32202 11.8492 6.32471 12.0432 6.26741 12.2235C6.21011 12.4038 6.09592 12.5607 5.94196 12.6706C5.78799 12.7806 5.60254 12.8376 5.4134 12.8333C5.06131 12.8235 4.71092 12.7806 4.36691 12.705" fill="white"/>
</svg>
